# AST/ASF file generated using VICON BodyLanguage
# -----------------------------------------------
:version 1.10
:name VICON
:units
  mass 1.0
  length 0.45
  angle deg
:documentation
   .ast/.asf automatically generated from VICON data using
   VICON BodyBuilder and BodyLanguage model FoxedUp or BRILLIANT.MOD
:root
   order TX TY TZ RX RY RZ
   axis XYZ
   position 0 0 0  
   orientation 0 0 0 
:bonedata
  begin
     id 1 
     name lhipjoint
     direction 0.528046 -0.759594 0.379717 
     length 2.39752 
     axis 0 0 0  XYZ
  end
  begin
     id 2 
     name lfemur
     direction 0.34202 -0.939693 0  
     length 7.31175  
     axis 0 0 20  XYZ
    dof rx ry rz
    limits (-160.0 20.0)
           (-70.0 70.0)
           (-60.0 70.0)
  end
  begin
     id 3 
     name ltibia
     direction 0.34202 -0.939693 0   
     length 7.52482   
     axis 0 0 20   XYZ
    dof rx
    limits (-10.0 170.0)
  end
  begin
     id 4 
     name lfoot
     direction 0.0675379 -0.185559 0.980309   
     length 2.00961   
     axis -90 7.62852e-016 20   XYZ
    dof rx rz
    limits (-45.0 90.0)
           (-70.0 20.0)
  end
  begin
     id 5 
     name ltoes
     direction 1.5352e-011 -4.22286e-011 1   
     length 1.01383   
     axis -90 7.62852e-016 20   XYZ
    dof rx
    limits (-90.0 20.0)
  end
  begin
     id 6 
     name rhipjoint
     direction -0.510274 -0.769251 0.384544   
     length 2.36742  
     axis 0 0 0  XYZ 
  end
  begin
     id 7 
     name rfemur
     direction -0.34202 -0.939693 0   
     length 7.45325   
     axis 0 0 -20   XYZ
    dof rx ry rz
    limits (-160.0 20.0)
           (-70.0 70.0)
           (-70.0 60.0)
  end
  begin
     id 8 
     name rtibia
     direction -0.34202 -0.939693 0   
     length 7.49587   
     axis 0 0 -20   XYZ
    dof rx
    limits (-10.0 170.0)
 end
 begin
     id 9 
     name rfoot
     direction -0.106475 -0.292536 0.950308   
     length 2.20898  
     axis -90 -7.62852e-016 -20   XYZ
    dof rx rz
    limits (-45.0 90.0)
           (-20.0 70.0)
  end
  begin
     id 10 
     name rtoes
     direction -1.53597e-011 -4.22023e-011 1   
     length 1.10065   
     axis -90 -7.62852e-016 -20   XYZ
    dof rx
    limits (-90.0 20.0)
  end
  begin
     id 11 
     name lowerback
     direction 0.0260024 0.998026 -0.0571652   
     length 2.11214   
     axis 0 0 0   XYZ
    dof rx ry rz
    limits (-20.0 45.0)
           (-30.0 30.0)
           (-30.0 30.0)
  end
  begin
     id 12 
     name upperback
     direction 0.0216202 0.999542 -0.0211766   
     length 2.11689   
     axis 0 0 0   XYZ
    dof rx ry rz
    limits (-20.0 45.0)
           (-30.0 30.0)
           (-30.0 30.0)
  end
  begin
     id 13 
     name thorax
     direction 0.00883312 0.999944 0.00589057   
     length 2.11821   
     axis 0 0 0   XYZ
    dof rx ry rz
    limits (-20.0 45.0)
           (-30.0 30.0)
           (-30.0 30.0)
  end
  begin
     id 14 
     name lowerneck
     direction -0.059386 0.994433 0.0870401   
     length 1.81176   
     axis 0 0 0   XYZ
    dof rx ry rz
    limits (-20.0 45.0)
           (-30.0 30.0)
           (-30.0 30.0)
  end
  begin
     id 15 
     name upperneck
     direction 0.0506457 0.97328 -0.223967   
     length 1.82382   
     axis 0 0 0   XYZ
    dof rx ry rz
    limits (-20.0 45.0)
           (-30.0 30.0)
           (-30.0 30.0)
  end
  begin
     id 16
     name head
     direction 0.0205902 0.996147 -0.0852487  
     length 1.84805  
     axis 0 0 0   XYZ
    dof rx ry rz
    limits (-20.0 45.0)
           (-30.0 30.0)
           (-30.0 30.0)
  end
  begin
     id 17 
     name lclavicle
     direction 0.949493 0.303881 -0.0782325  
     length 3.60584  
     axis 0 0 0   XYZ
    dof ry rz
    limits (-20.0 10.0)
           (0.0 20.0)
  end
  begin
     id 18 
     name lhumerus
     direction 1 -4.48965e-011 1.48782e-027   
     length 4.95681   
     axis 180 -30 -90   XYZ
    dof rx ry rz
    limits (-60.0 90.0)
           (-90.0 90.0)
           (-90.0 90.0)
  end
  begin
     id 19
     name lradius
     direction 1 -4.48952e-011 2.06528e-027   
     length 3.40915   
     axis 180 -30 -90   XYZ
    dof rx
    limits (-10.0 170.0)
  end
  begin
     id 20
     name lwrist
     direction 1 -4.48964e-011 1.28021e-027   
     length 1.70457   
     axis -1.61767e-015 90 90   XYZ
    dof ry
    limits (-180.0 0.0)
 end
  begin
     id 21 
     name lhand
     direction 1 -4.49094e-011 2.54887e-027   
     length 0.616403   
     axis -1.63363e-015 90 90   XYZ
    dof rx rz
    limits (-90.0 90.0)
           (-45.0 45.0)
  end
  begin
     id 22 
     name lfingers
     direction 1 -4.49002e-011 5.11407e-027   
     length 0.49696   
     axis -3.26723e-015 90 90   XYZ
    dof rx
    limits (0.0 90.0)
  end
  begin
     id 23
     name lthumb
     direction 0.707107 -6.34998e-011 0.707107   
     length 0.713539   
     axis -90 45 -2.25915e-014   XYZ
    dof rx rz
    limits (-45.0 45.0)
           (-45.0 45.0)
  end
  begin
     id 24 
     name rclavicle
     direction -0.937751 0.334612 -0.0930482   
     length 3.46287  
     axis 0 0 0   XYZ 
    dof ry rz
    limits (-10.0 20.0)
           (-20.0 0.0)
  end
  begin
     id 25 
     name rhumerus
     direction -1 -4.48962e-011 3.59972e-027  
     length 5.352   
     axis 180 30 90   XYZ
    dof rx ry rz
    limits (-90.0 60.0)
           (-90.0 90.0)
           (-90.0 90.0)
  end
  begin
     id 26 
     name rradius
     direction -1 -4.48987e-011 -3.76925e-027   
     length 3.43721   
     axis 180 30 90   XYZ
    dof rx
    limits (-10.0 170.0)
  end
  begin
     id 27 
     name rwrist
     direction -1 -4.48943e-011 1.28112e-027   
     length 1.7186   
     axis -1.61767e-015 -90 -90   XYZ
    dof ry
    limits (-180.0 0.0)
  end
  begin
     id 28
     name rhand
     direction -1 -4.49027e-011 2.55483e-027   
     length 0.72009   
     axis -1.63363e-015 -90 -90   XYZ
    dof rx rz
    limits (-90.0 90.0)
           (-45.0 45.0)
  end
  begin
     id 29
     name rfingers
     direction -1 -4.48827e-011 5.14506e-027   
     length 0.580555   
     axis -3.26723e-015 -90 -90   XYZ
    dof rx
    limits (0.0 90.0)
  end
  begin
     id 30
     name rthumb
     direction -0.707107 -6.34936e-011 0.707107   
     length 0.833564   
     axis -90 -45 2.25915e-014   XYZ
    dof rx rz
    limits (-45.0 45.0)
           (-45.0 45.0)
  end
:hierarchy
  begin
    root lhipjoint rhipjoint lowerback
    lhipjoint lfemur
    lfemur ltibia
    ltibia lfoot
    lfoot ltoes
    rhipjoint rfemur
    rfemur rtibia
    rtibia rfoot
    rfoot rtoes
    lowerback upperback
    upperback thorax
    thorax lowerneck lclavicle rclavicle
    lowerneck upperneck
    upperneck head
    lclavicle lhumerus
    lhumerus lradius
    lradius lwrist
    lwrist lhand lthumb
    lhand lfingers
    rclavicle rhumerus
    rhumerus rradius
    rradius rwrist
    rwrist rhand rthumb
    rhand rfingers
  end

#!OML:ASF H:\Terrain\Patient Classification 1\Terrain2\Thursday\justin.ASF
:FULLY-SPECIFIED
:DEGREES
75
root 27.4858 17.6656 -0.569224 98.2958 -81.3228 -97.4657
lowerback 11.9186 1.34448 9.6928
upperback 4.0633 2.72268 4.17448
thorax -2.12359 1.24267 -1.42126
lowerneck -14.0261 -0.814491 -10.9617
upperneck 37.4359 -0.631063 3.53422
head 15.6131 -1.79704 3.22915
rclavicle -2.16675e-014 -1.74931e-014
rhumerus -28.6348 -7.70775 -82.1004
rradius 27.1459
rwrist -10.6106
rhand -23.6328 12.9566
rfingers 7.12502
rthumb 2.832 -17.0043
lclavicle -2.16675e-014 -1.74931e-014
lhumerus -34.6253 13.03 84.6307
lradius 28.9313
lwrist 3.96245
lhand -19.5356 18.3633
lfingers 7.12502
lthumb 6.78818 48.2344
rfemur 21.749 -9.341 33.09
rtibia 9.54166e-015
rfoot -9.21883 0.94617
rtoes -9.49962
lfemur -62.4724 6.79468 -15.2843
ltibia 77.0262
lfoot -3.18627 -14.0622
ltoes 27.3422
76
root 27.4013 17.6792 -0.562857 97.632 -81.3074 -96.5879
lowerback 12.0277 1.29042 9.66953
upperback 4.00859 2.66903 4.28185
thorax -2.25278 1.20742 -1.29372
lowerneck -13.916 -0.814748 -11.1532
upperneck 37.1613 -0.510507 3.38982
head 15.4438 -1.77557 3.21352
rclavicle -7.35503e-015 2.78299e-014
rhumerus -28.7136 -7.16484 -82.1045
rradius 27.2564
rwrist -11.0677
rhand -24.1836 13.2026
rfingers 7.12502
rthumb 2.30005 -16.7647
lclavicle -7.35503e-015 2.78299e-014
lhumerus -34.6773 13.4977 84.7552
lradius 28.8326
lwrist 3.55369
lhand -19.6871 18.2815
lfingers 7.12502
lthumb 6.64192 48.1574
rfemur 21.8198 -9.36649 33.0177
rtibia 5.40694e-014
rfoot -8.642 1.27955
rtoes -7.75159
lfemur -62.1299 6.49842 -15.1641
ltibia 76.9543
lfoot -3.93124 -14.2521
ltoes 28.2321
77
root 27.3183 17.688 -0.552607 96.7121 -81.0537 -95.5421
lowerback 12.3025 1.22106 9.86281
upperback 3.93563 2.64134 4.43239
thorax -2.47929 1.17846 -1.24746
lowerneck -13.7368 -0.75286 -11.2457
upperneck 36.9164 -0.406044 3.40898
head 15.2707 -1.72713 3.24857
rclavicle -1.53064e-014 2.46493e-014
rhumerus -28.8168 -6.56249 -82.2198
rradius 27.3635
rwrist -11.8659
rhand -24.7113 13.4798
rfingers 7.12502
rthumb 1.7904 -16.4924
lclavicle -1.53064e-014 2.46493e-014
lhumerus -34.9139 14.021 84.7354
lradius 28.9552
lwrist 3.30613
lhand -19.6922 18.2865
lfingers 7.12502
lthumb 6.63698 48.1625
rfemur 21.9599 -9.41507 33.1885
rtibia 1.20861e-013
rfoot -8.09919 1.5568
rtoes -7.14459
lfemur -61.8925 6.29629 -14.8141
ltibia 76.8973
lfoot -5.29011 -14.1789
ltoes 24.5087
78
root 27.2282 17.705 -0.542459 95.9127 -81.0267 -94.5317
lowerback 12.3801 1.35561 10.2118
upperback 3.95372 2.8663 4.1979
thorax -2.44897 1.29536 -1.71607
lowerneck -13.8134 -0.94564 -10.9995
upperneck 36.7579 -0.840258 3.7023
head 15.2479 -1.81878 3.25945
rclavicle -1.41137e-014 -2.78299e-014
rhumerus -28.748 -7.21578 -82.3928
rradius 27.3981
rwrist -12.2838
rhand -24.7579 13.7525
rfingers 7.12502
rthumb 1.74536 -16.2201
lclavicle -1.41137e-014 -2.78299e-014
lhumerus -34.7142 13.3195 84.6955
lradius 29.1011
lwrist 3.29805
lhand -19.7175 18.6526
lfingers 7.12502
lthumb 6.61249 48.5293
rfemur 21.9926 -9.47297 33.1615
rtibia 1.27222e-014
rfoot -7.61614 1.75225
rtoes -8.26592
lfemur -61.7543 6.02569 -14.669
ltibia 76.8129
lfoot -6.31316 -13.832
ltoes 23.2232
79
root 27.1327 17.7184 -0.536656 94.8507 -80.911 -93.1679
lowerback 12.335 1.43297 10.5612
upperback 3.96349 3.00007 4.0764
thorax -2.37187 1.36725 -2.05002
lowerneck -14.0082 -1.16081 -10.9679
upperneck 36.6738 -1.1851 3.87088
head 15.2876 -1.92419 3.27044
rclavicle -5.18828e-014 -2.46493e-014
rhumerus -28.6953 -7.68421 -82.4567
rradius 27.4858
rwrist -12.3514
rhand -24.7033 14.1492
rfingers 7.12502
rthumb 1.79811 -15.823
lclavicle -5.18828e-014 -2.46493e-014
lhumerus -34.422 12.7809 84.7358
lradius 29.0584
lwrist 3.3483
lhand -20.0166 18.8471
lfingers 7.12502
lthumb 6.3238 48.7327
rfemur 21.9554 -9.56807 33.2819
rtibia 7.31528e-014
rfoot -7.12622 1.84601
rtoes -10.3139
lfemur -61.6451 5.73248 -14.5002
ltibia 76.6574
lfoot -7.07719 -13.6207
ltoes 22.1154
80
root 27.0377 17.7231 -0.528818 93.945 -80.9329 -91.9863
lowerback 12.397 1.3801 10.4372
upperback 3.89519 2.93461 4.15659
thorax -2.49775 1.32683 -1.89335
lowerneck -14.0648 -1.14588 -11.1261
upperneck 36.6313 -1.09779 3.86875
head 15.2747 -1.90551 3.31138
rclavicle 1.8487e-014 3.49861e-014
rhumerus -28.7816 -7.24652 -82.4853
rradius 27.577
rwrist -12.4881
rhand -24.9111 14.3448
rfingers 7.12502
rthumb 1.59739 -15.629
lclavicle 1.8487e-014 3.49861e-014
lhumerus -34.4628 13.0464 84.7524
lradius 29.0471
lwrist 3.54414
lhand -20.1035 18.6649
lfingers 7.12502
lthumb 6.23987 48.553
rfemur 21.9385 -9.65253 33.249
rtibia -2.22639e-014
rfoot -6.46412 1.85248
rtoes -13.1736
lfemur -61.5015 5.49884 -14.6648
ltibia 76.5274
lfoot -8.21297 -13.3944
ltoes 17.0687
81
root 26.9436 17.7398 -0.515609 93.9238 -81.2029 -91.6685
lowerback 12.487 1.38844 10.0679
upperback 3.81566 2.92811 4.15069
thorax -2.65466 1.31729 -1.70153
lowerneck -14.087 -1.0924 -11.1492
upperneck 36.5776 -0.985689 3.83067
head 15.2425 -1.86211 3.31671
rclavicle -1.59028e-015 5.1684e-014
rhumerus -28.8704 -6.94148 -82.4855
rradius 27.6523
rwrist -12.5933
rhand -24.8976 14.0168
rfingers 7.12502
rthumb 1.61042 -15.9569
lclavicle -1.59028e-015 5.1684e-014
lhumerus -34.5861 13.2191 84.7883
lradius 29.1602
lwrist 3.63179
lhand -19.9052 18.4919
lfingers 7.12502
lthumb 6.43132 48.3742
rfemur 21.8762 -9.60123 32.9019
rtibia 9.54166e-015
rfoot -5.67237 1.97474
rtoes -14.2765
lfemur -61.3699 5.30843 -15.0723
ltibia 76.4835
lfoot -9.29663 -13.3476
ltoes 13.2942
82
root 26.8461 17.7735 -0.506391 94.278 -81.0241 -91.6573
lowerback 12.4505 1.47816 10.3168
upperback 3.77388 3.07486 4.12224
thorax -2.64724 1.38919 -1.88646
lowerneck -14.1029 -1.13729 -11.1049
upperneck 36.4199 -1.09518 3.97044
head 15.1789 -1.87008 3.34824
rclavicle -4.96962e-015 3.49861e-014
rhumerus -28.853 -7.14285 -82.5484
rradius 27.7515
rwrist -12.5574
rhand -25.1033 13.7023
rfingers 7.12502
rthumb 1.41178 -16.2727
lclavicle -4.96962e-015 3.49861e-014
lhumerus -34.4829 12.9695 84.8175
lradius 29.1293
lwrist 3.43831
lhand -19.9649 18.5311
lfingers 7.12502
lthumb 6.37373 48.4152
rfemur 21.7181 -9.46505 33.0385
rtibia 1.90833e-014
rfoot -4.91234 2.13567
rtoes -13.1238
lfemur -61.3576 5.17285 -14.7703
ltibia 76.5749
lfoot -9.53724 -13.7117
ltoes 15.3932
83
root 26.7447 17.813 -0.503089 94.4391 -80.9095 -91.5564
lowerback 12.4659 1.63132 10.5958
upperback 3.76174 3.3117 4.003
thorax -2.61778 1.50857 -2.19572
lowerneck -14.0084 -1.28348 -11.0029
upperneck 36.1782 -1.39099 4.13055
head 15.0683 -1.94199 3.34507
rclavicle -4.69132e-014 -3.10104e-014
rhumerus -28.8138 -7.73898 -82.5716
rradius 27.7393
rwrist -12.2763
rhand -25.2569 14.0183
rfingers 7.12502
rthumb 1.26341 -15.9577
lclavicle -4.69132e-014 -3.10104e-014
lhumerus -34.3563 12.5973 84.825
lradius 29.1028
lwrist 3.23077
lhand -20.3366 18.846
lfingers 7.12502
lthumb 6.01486 48.7407
rfemur 21.6547 -9.37576 33.1213
rtibia 3.49861e-014
rfoot -4.21023 2.23339
rtoes -13.42
lfemur -61.1918 5.02852 -14.4879
ltibia 76.6973
lfoot -9.31685 -13.8983
ltoes 19.1947
